<?xml version="1.0" encoding="utf-8"?>
<!-- Generator: Adobe Illustrator 23.0.3, SVG Export Plug-In . SVG Version: 6.00 Build 0)  -->
<svg version="1.1" id="Layer_1" xmlns="http://www.w3.org/2000/svg" xmlns:xlink="http://www.w3.org/1999/xlink" x="0px" y="0px"
	 viewBox="0 0 1080 1080" style="enable-background:new 0 0 1080 1080;" xml:space="preserve">
<style type="text/css">
	.st0{fill:#6C2655;}
	.st1{fill:#AC9760;}
	.st2{fill:#3F3F3F;}
	.st3{fill:#591847;}
	.st4{fill:#828282;}
	.st5{fill:#7F7F7F;}
</style>
<g>
	<g>
		<g>
			<g>
				<path class="st0" d="M355.26,537.23l-25.12-43.27v43.27h-10.62v-68.3h8.37l25.03,43.13v-43.13h10.62v68.3H355.26z"/>
			</g>
			<g>
				<path class="st0" d="M419.53,526.1c-2.15,3.3-4.96,5.97-8.42,8c-4.02,2.43-8.37,3.65-13.05,3.65c-7.14,0-13.24-2.57-18.29-7.72
					c-5.05-5.11-7.58-11.3-7.58-18.57c0-7.27,2.53-13.46,7.58-18.57c5.05-5.15,11.15-7.72,18.29-7.72c7.11,0,13.21,2.57,18.29,7.72
					c5.05,5.12,7.58,11.31,7.58,18.57v4.44h-39.95c0.87,3.4,2.68,6.13,5.43,8.19c2.59,1.87,5.47,2.81,8.65,2.81
					c5.21,0,9.23-2.07,12.07-6.22L419.53,526.1z M412.14,506.03c-1.09-2.96-2.9-5.36-5.43-7.2c-2.59-1.87-5.47-2.81-8.65-2.81
					c-3.18,0-6.07,0.94-8.65,2.81c-2.53,1.84-4.34,4.24-5.43,7.2H412.14z"/>
			</g>
			<g>
				<path class="st0" d="M478.28,526.1c-2.15,3.3-4.96,5.97-8.42,8c-4.02,2.43-8.37,3.65-13.05,3.65c-7.14,0-13.24-2.57-18.29-7.72
					c-5.05-5.11-7.58-11.3-7.58-18.57c0-7.27,2.53-13.46,7.58-18.57c5.05-5.15,11.15-7.72,18.29-7.72c7.11,0,13.21,2.57,18.29,7.72
					c5.05,5.12,7.58,11.31,7.58,18.57v4.44h-39.95c0.87,3.4,2.68,6.13,5.43,8.19c2.59,1.87,5.47,2.81,8.65,2.81
					c5.21,0,9.23-2.07,12.07-6.22L478.28,526.1z M470.89,506.03c-1.09-2.96-2.9-5.36-5.43-7.2c-2.59-1.87-5.47-2.81-8.65-2.81
					s-6.07,0.94-8.65,2.81c-2.53,1.84-4.34,4.24-5.43,7.2H470.89z"/>
			</g>
			<g>
				<path class="st0" d="M541.39,537.28h-10.85v-4.35c-4.49,3.34-9.5,5.01-15.02,5.01c-7.14,0-13.24-2.59-18.29-7.77
					c-5.05-5.11-7.58-11.29-7.58-18.52c0-7.27,2.53-13.46,7.58-18.57c5.05-5.15,11.15-7.72,18.29-7.72c5.52,0,10.53,1.64,15.02,4.91
					v-21.33h10.85V537.28z M515.52,527.08c4.12,0,7.66-1.51,10.62-4.54c2.93-3.02,4.4-6.66,4.4-10.9c0-4.27-1.47-7.92-4.4-10.95
					c-2.96-3.02-6.5-4.54-10.62-4.54c-4.15,0-7.7,1.51-10.67,4.54c-2.9,3.03-4.35,6.67-4.35,10.95c0,4.24,1.45,7.88,4.35,10.9
					C507.82,525.57,511.37,527.08,515.52,527.08z"/>
			</g>
			<g>
				<path class="st0" d="M552.62,468.93h10.57v68.3h-10.57V468.93z"/>
			</g>
			<g>
				<path class="st0" d="M620.59,526.1c-2.15,3.3-4.96,5.97-8.42,8c-4.02,2.43-8.37,3.65-13.05,3.65c-7.14,0-13.24-2.57-18.29-7.72
					c-5.05-5.11-7.58-11.3-7.58-18.57c0-7.27,2.53-13.46,7.58-18.57c5.05-5.15,11.15-7.72,18.29-7.72c7.11,0,13.21,2.57,18.29,7.72
					c5.05,5.12,7.58,11.31,7.58,18.57v4.44h-39.95c0.87,3.4,2.68,6.13,5.43,8.19c2.59,1.87,5.47,2.81,8.65,2.81
					c5.21,0,9.23-2.07,12.07-6.22L620.59,526.1z M613.2,506.03c-1.09-2.96-2.9-5.36-5.43-7.2c-2.59-1.87-5.47-2.81-8.65-2.81
					c-3.18,0-6.07,0.94-8.65,2.81c-2.53,1.84-4.34,4.24-5.43,7.2H613.2z"/>
			</g>
			<g>
				<path class="st0" d="M648.75,496.02c-1.62,0-3.01,0.48-4.16,1.45c-1.15,1-1.73,2.18-1.73,3.55c0,1.28,0.39,2.23,1.17,2.85
					c0.87,0.62,2.93,1.39,6.17,2.29c4.43,1.25,7.7,2.64,9.82,4.16c3.68,2.68,5.52,6.52,5.52,11.51c0,4.4-1.64,8.14-4.91,11.23
					c-3.27,3.12-7.24,4.68-11.88,4.68c-4.62,0-8.56-1.56-11.84-4.68c-3.27-3.09-4.91-6.83-4.91-11.23h10.85c0,1.4,0.58,2.6,1.73,3.6
					c1.15,0.97,2.54,1.45,4.16,1.45c1.65,0,3.06-0.48,4.21-1.45c1.18-1,1.78-2.2,1.78-3.6c0-1.31-0.41-2.28-1.22-2.9
					c-0.9-0.66-2.99-1.43-6.27-2.34c-4.43-1.25-7.69-2.64-9.78-4.16c-3.65-2.65-5.47-6.46-5.47-11.41c0-4.37,1.64-8.11,4.91-11.23
					c3.27-3.09,7.22-4.63,11.84-4.63c4.65,0,8.61,1.54,11.88,4.63c3.27,3.12,4.91,6.86,4.91,11.23h-10.81
					c0-1.37-0.59-2.56-1.78-3.55C651.8,496.5,650.4,496.02,648.75,496.02z"/>
			</g>
			<g>
				<path class="st0" d="M688.46,485.68h6.97v10.62h-6.97v40.93h-10.62V496.3h-6.92v-10.62h6.92v-16.75h10.62V485.68z"/>
			</g>
			<g>
				<path class="st0" d="M752.03,537.23h-10.85v-4.44c-4.49,3.31-9.5,4.96-15.02,4.96c-7.14,0-13.24-2.57-18.29-7.72
					c-5.05-5.11-7.58-11.3-7.58-18.57c0-7.27,2.53-13.46,7.58-18.57c5.05-5.15,11.15-7.72,18.29-7.72c5.52,0,10.53,1.64,15.02,4.91
					v-4.4h10.85V537.23z M726.17,526.89c4.12,0,7.66-1.5,10.62-4.49c2.93-3.02,4.4-6.67,4.4-10.95c0-4.27-1.47-7.92-4.4-10.95
					c-2.96-2.99-6.5-4.49-10.62-4.49c-4.15,0-7.7,1.5-10.67,4.49c-2.9,3.03-4.35,6.67-4.35,10.95c0,4.27,1.45,7.92,4.35,10.95
					C718.46,525.39,722.02,526.89,726.17,526.89z"/>
			</g>
			<g>
				<path class="st0" d="M786.09,496.02c-4.15,0-7.69,1.5-10.62,4.49c-2.93,3.03-4.4,6.67-4.4,10.95c0,4.27,1.47,7.92,4.4,10.95
					c2.93,2.99,6.47,4.49,10.62,4.49c5.08,0,9.14-2.11,12.16-6.31l8.84,6.27c-5.21,7.27-12.21,10.9-21,10.9
					c-7.14,0-13.24-2.57-18.29-7.72c-5.05-5.11-7.58-11.3-7.58-18.57c0-7.27,2.53-13.46,7.58-18.57c5.05-5.15,11.15-7.72,18.29-7.72
					c8.79,0,15.8,3.63,21,10.9l-8.84,6.27C795.23,498.12,791.17,496.02,786.09,496.02z"/>
			</g>
			<g>
				<path class="st0" d="M843.49,537.23l-18.29-18.38v18.38h-10.62v-68.3h10.62v35.13l17.26-18.38h15.25l-24.89,25.77l26.43,25.78
					H843.49z"/>
			</g>
		</g>
		<g>
			<path class="st2" d="M345.65,554.91v6.95h-9.61v37.73h-6.95v-37.73h-9.58v-6.95H345.65z"/>
			<path class="st2" d="M380.44,592.31c-1.41,2.16-3.24,3.91-5.51,5.23c-2.63,1.59-5.48,2.39-8.54,2.39
				c-4.67,0-8.66-1.68-11.97-5.05c-3.3-3.35-4.96-7.4-4.96-12.15c0-4.75,1.65-8.8,4.96-12.15c3.3-3.37,7.29-5.05,11.97-5.05
				c4.65,0,8.64,1.68,11.97,5.05c3.3,3.35,4.96,7.4,4.96,12.15v2.91h-26.13c0.57,2.22,1.75,4.01,3.55,5.36
				c1.69,1.22,3.58,1.84,5.66,1.84c3.41,0,6.04-1.36,7.9-4.07L380.44,592.31z M375.61,579.18c-0.71-1.94-1.9-3.51-3.55-4.71
				c-1.69-1.22-3.58-1.84-5.66-1.84s-3.97,0.61-5.66,1.84c-1.65,1.2-2.84,2.77-3.55,4.71H375.61z"/>
			<path class="st2" d="M404.83,572.63c-2.71,0-5.03,0.98-6.95,2.94c-1.92,1.98-2.88,4.37-2.88,7.16c0,2.79,0.96,5.18,2.88,7.16
				c1.92,1.96,4.23,2.94,6.95,2.94c3.33,0,5.98-1.38,7.96-4.13l5.78,4.1c-3.41,4.75-7.99,7.13-13.74,7.13
				c-4.67,0-8.66-1.68-11.97-5.05c-3.3-3.35-4.96-7.4-4.96-12.15c0-4.75,1.65-8.8,4.96-12.15c3.3-3.37,7.29-5.05,11.97-5.05
				c5.75,0,10.33,2.38,13.74,7.13l-5.78,4.1C410.81,574.01,408.16,572.63,404.83,572.63z"/>
			<path class="st2" d="M439.01,565.5c4.28,0,7.95,1.65,10.99,4.96c3.06,3.28,4.59,7.25,4.59,11.9v17.23h-6.95v-17.23
				c0-2.73-0.85-5.07-2.54-7.01c-1.67-1.94-3.7-2.91-6.09-2.91c-2.37,0-4.4,0.97-6.09,2.91c-1.67,1.94-2.51,4.27-2.51,7.01v17.23
				h-6.95v-44.68h6.95v13.4C433.03,566.44,435.89,565.5,439.01,565.5z"/>
			<path class="st2" d="M476.26,565.2c4.28,0,7.95,1.65,10.99,4.96c3.04,3.28,4.56,7.25,4.56,11.9v17.53h-6.92v-17.53
				c0-2.73-0.85-5.07-2.54-7.01c-1.69-1.94-3.72-2.91-6.09-2.91s-4.4,0.97-6.09,2.91c-1.67,1.94-2.51,4.27-2.51,7.01v17.53h-6.95
				v-33.72h6.95v2.14C470.25,566.14,473.11,565.2,476.26,565.2z"/>
			<path class="st2" d="M514.38,565.53c4.65,0,8.64,1.68,11.97,5.05c3.3,3.35,4.96,7.4,4.96,12.15c0,4.75-1.65,8.8-4.96,12.15
				c-3.33,3.37-7.31,5.05-11.97,5.05c-4.67,0-8.66-1.68-11.97-5.05c-3.3-3.35-4.96-7.4-4.96-12.15c0-4.75,1.65-8.8,4.96-12.15
				C505.72,567.22,509.71,565.53,514.38,565.53z M514.38,592.83c2.69,0,5.01-0.98,6.95-2.94c1.92-1.98,2.88-4.37,2.88-7.16
				c0-2.79-0.96-5.18-2.88-7.16c-1.94-1.96-4.25-2.94-6.95-2.94c-2.71,0-5.04,0.98-6.98,2.94c-1.9,1.98-2.85,4.37-2.85,7.16
				c0,2.79,0.95,5.18,2.85,7.16C509.35,591.85,511.67,592.83,514.38,592.83z"/>
			<path class="st2" d="M537.89,554.91h6.92v44.68h-6.92V554.91z"/>
			<path class="st2" d="M568.3,565.53c4.65,0,8.64,1.68,11.97,5.05c3.3,3.35,4.96,7.4,4.96,12.15c0,4.75-1.65,8.8-4.96,12.15
				c-3.33,3.37-7.31,5.05-11.97,5.05c-4.67,0-8.66-1.68-11.97-5.05c-3.3-3.35-4.96-7.4-4.96-12.15c0-4.75,1.65-8.8,4.96-12.15
				C559.64,567.22,563.63,565.53,568.3,565.53z M568.3,592.83c2.69,0,5.01-0.98,6.95-2.94c1.92-1.98,2.88-4.37,2.88-7.16
				c0-2.79-0.96-5.18-2.88-7.16c-1.94-1.96-4.25-2.94-6.95-2.94c-2.71,0-5.04,0.98-6.98,2.94c-1.9,1.98-2.85,4.37-2.85,7.16
				c0,2.79,0.95,5.18,2.85,7.16C563.26,591.85,565.59,592.83,568.3,592.83z"/>
			<path class="st2" d="M596.61,598.12c0.75,1.65,1.88,3.01,3.37,4.07c1.71,1.18,3.39,1.77,5.02,1.77c2.2,0,4.12-0.94,5.75-2.82
				c1.49-1.71,2.33-3.85,2.51-6.4c-2.59,1.71-5.43,2.57-8.51,2.57c-4.32,0-8.02-1.55-11.08-4.65c-3.06-3.1-4.59-6.84-4.59-11.23
				s1.53-8.13,4.59-11.23c3.06-3.1,6.75-4.65,11.08-4.65c3.1,0,5.95,0.87,8.54,2.6v-2.33h7.1v28.34c-0.08,4.83-1.64,8.85-4.68,12.06
				c-3.04,3.22-6.61,4.83-10.71,4.83c-3.1,0-6.12-1.02-9.06-3.06c-2.71-1.9-4.7-4.35-5.97-7.34L596.61,598.12z M604.75,590.26
				c2.37,0,4.39-0.86,6.06-2.57c1.67-1.73,2.51-3.81,2.51-6.24s-0.84-4.5-2.51-6.21s-3.69-2.57-6.06-2.57s-4.39,0.86-6.06,2.57
				s-2.51,3.78-2.51,6.21s0.84,4.5,2.51,6.21C600.36,589.39,602.38,590.26,604.75,590.26z"/>
			<path class="st2" d="M633.36,555.73c0.73,0.74,1.1,1.65,1.1,2.71s-0.37,1.96-1.1,2.71s-1.64,1.12-2.72,1.12
				c-1.06,0-1.96-0.37-2.71-1.12s-1.12-1.65-1.12-2.71s0.37-1.96,1.12-2.71s1.65-1.12,2.71-1.12
				C631.72,554.61,632.63,554.98,633.36,555.73z M627.15,599.59h6.95v-33.72h-6.95V599.59z"/>
			<path class="st2" d="M671.09,592.31c-1.41,2.16-3.24,3.91-5.51,5.23c-2.63,1.59-5.48,2.39-8.54,2.39
				c-4.67,0-8.66-1.68-11.97-5.05c-3.3-3.35-4.96-7.4-4.96-12.15c0-4.75,1.65-8.8,4.96-12.15c3.3-3.37,7.29-5.05,11.97-5.05
				c4.65,0,8.64,1.68,11.97,5.05c3.3,3.35,4.96,7.4,4.96,12.15v2.91h-26.13c0.57,2.22,1.75,4.01,3.55,5.36
				c1.69,1.22,3.58,1.84,5.66,1.84c3.41,0,6.04-1.36,7.9-4.07L671.09,592.31z M666.26,579.18c-0.71-1.94-1.9-3.51-3.55-4.71
				c-1.69-1.22-3.58-1.84-5.66-1.84s-3.97,0.61-5.66,1.84c-1.65,1.2-2.84,2.77-3.55,4.71H666.26z"/>
			<path class="st2" d="M689.51,572.63c-1.06,0-1.97,0.32-2.72,0.95c-0.75,0.65-1.13,1.43-1.13,2.33c0,0.84,0.26,1.46,0.77,1.87
				c0.57,0.41,1.92,0.91,4.04,1.5c2.9,0.82,5.04,1.72,6.43,2.72c2.41,1.75,3.61,4.26,3.61,7.53c0,2.88-1.07,5.32-3.21,7.34
				c-2.14,2.04-4.73,3.06-7.77,3.06c-3.02,0-5.6-1.02-7.74-3.06c-2.14-2.02-3.21-4.47-3.21-7.34h7.1c0,0.92,0.38,1.7,1.13,2.36
				c0.75,0.63,1.66,0.95,2.72,0.95c1.08,0,2-0.32,2.75-0.95c0.78-0.65,1.16-1.44,1.16-2.36c0-0.86-0.27-1.49-0.8-1.9
				c-0.59-0.43-1.96-0.94-4.1-1.53c-2.9-0.82-5.03-1.72-6.4-2.72c-2.39-1.73-3.58-4.22-3.58-7.47c0-2.86,1.07-5.3,3.21-7.34
				c2.14-2.02,4.72-3.03,7.74-3.03c3.04,0,5.63,1.01,7.77,3.03c2.14,2.04,3.21,4.49,3.21,7.34h-7.07c0-0.9-0.39-1.67-1.16-2.33
				C691.51,572.95,690.6,572.63,689.51,572.63z"/>
		</g>
	</g>
	<g>
		<path class="st2" d="M261.83,528.54c0,0.04-0.04,0.07-0.07,0.07c-0.01,0-0.02,0-0.03-0.01l-8.84-5.1c-0.17-0.1-0.29-0.28-0.3-0.49
			c-0.22-4-0.37-7.39-0.43-10.18c-0.12-5.06-0.52-9.23-0.56-14.12c-0.01-1.26-0.07-3.14-0.18-5.65c-0.12-2.66-0.27-6.74-0.45-12.24
			c-0.13-3.97-1.28-8.18,2.66-10.73c2.45-1.59,5.59-1.4,7.89,0.32c2.02,1.52,2.62,4.01,2.5,6.53c-0.75,17.22-1.26,29.26-1.52,36.12
			C262.26,518.68,262.05,523.84,261.83,528.54z M257.41,493.08c0.99-0.27,1.6-0.78,1.81-1.51c0.48-1.64,0.72-3.44,0.71-5.4
			c-0.01-3.36-0.01-6.01,0.01-7.95c0.01-0.89-0.09-1.53-0.3-1.9c-0.45-0.8-1.72-1.96-2.78-1.53c-1.48,0.6-1.95,1.45-2,3.15
			c-0.1,3.61-0.06,7.17,0.12,10.7c0.09,1.67,0.7,3.41,2.04,4.37C257.13,493.1,257.28,493.12,257.41,493.08z"/>
		<g>
			<path class="st3" d="M248.41,493.05l0.61,15.07c0,0.08-0.04,0.16-0.11,0.21l-11.21,6.31c-0.07,0.04-0.15,0.04-0.22,0l-13.37-7.72
				c-0.11-0.06-0.14-0.2-0.08-0.31c0.02-0.04,0.05-0.06,0.09-0.08l23.97-13.66c0.11-0.06,0.25-0.02,0.31,0.08
				C248.4,492.98,248.41,493.01,248.41,493.05z"/>
		</g>
		<g>
			<path class="st3" d="M265.59,508.08l0.61-14.97c0.01-0.14,0.13-0.25,0.27-0.24c0.04,0,0.08,0.01,0.11,0.03l24.16,13.61
				c0.12,0.07,0.16,0.23,0.09,0.35c-0.02,0.04-0.06,0.07-0.09,0.09l-13.59,7.65c-0.08,0.04-0.17,0.04-0.25,0l-11.17-6.29
				C265.64,508.27,265.59,508.18,265.59,508.08z"/>
		</g>
		<path class="st4" d="M273.78,535.58l-8.9-5.14c-0.03-0.02-0.05-0.06-0.05-0.1l0.63-15.49c0-0.06,0.05-0.11,0.11-0.1
			c0.02,0,0.03,0.01,0.05,0.01l8.27,4.66c0.03,0.02,0.05,0.05,0.06,0.09v15.97c0,0.06-0.05,0.11-0.1,0.11
			C273.81,535.6,273.79,535.59,273.78,535.58z"/>
		<path class="st4" d="M241.08,542.05l9.28,5.35c0.04,0.02,0.07,0.07,0.07,0.12l0.65,16.1c0,0.08-0.06,0.15-0.14,0.16
			c-0.03,0-0.06-0.01-0.08-0.02l-9.93-5.59c-0.05-0.03-0.07-0.08-0.07-0.13v-15.86c0-0.08,0.07-0.15,0.15-0.15
			C241.04,542.03,241.06,542.04,241.08,542.05z"/>
		<path class="st2" d="M257.51,610.89c0,0.06-0.05,0.11-0.1,0.11s-0.11-0.05-0.11-0.1c-0.51-3.74-0.98-6.94-1.43-9.61
			c-0.31-1.88-0.54-4.16-0.68-6.84c-0.26-5-0.45-9.16-0.57-12.48c-0.33-9.74-0.51-14.93-0.54-15.58c-0.08-2.49-0.31-8.99-0.68-19.51
			c0-0.05,0.03-0.08,0.08-0.09c0.02,0,0.03,0,0.05,0.01l7.24,4.18c0.25,0.14,0.39,0.42,0.38,0.71c-0.21,3.5-0.34,7.2-0.52,13.85
			c-0.09,3.66-0.23,7.32-0.41,10.98c-0.27,5.46-0.35,12.06-0.7,18.33c-0.12,2.13-0.35,4.31-0.71,6.53
			C258.37,604.22,257.93,607.38,257.51,610.89z"/>
		<g>
			<path class="st3" d="M220.77,568.99V553.3c0-0.06,0.05-0.1,0.11-0.1c0.02,0,0.04,0.01,0.05,0.01l30.41,17.14
				c0.03,0.02,0.05,0.05,0.06,0.09l0.65,16.05c0,0.06-0.04,0.11-0.1,0.11c-0.02,0-0.04,0-0.06-0.01l-31.07-17.51
				C220.79,569.06,220.77,569.02,220.77,568.99z"/>
		</g>
		<g>
			<path class="st3" d="M293.93,553.33v15.63c0,0.05-0.03,0.1-0.07,0.12l-30.91,17.41c-0.07,0.04-0.15,0.02-0.19-0.05
				c-0.01-0.02-0.02-0.05-0.02-0.08l0.64-15.8c0-0.05,0.03-0.09,0.07-0.12l30.27-17.25c0.07-0.04,0.15-0.02,0.19,0.05
				C293.92,553.28,293.93,553.31,293.93,553.33z"/>
		</g>
		<g>
			<path class="st0" d="M293.94,530.99l-0.02,18.65l-14.69,8.45c-0.11,0.06-0.25,0.06-0.36-0.01c-1.02-0.65-36.94-22.56-41.22-24.96
				v24.75c0,0.06-0.05,0.11-0.11,0.11c-0.02,0-0.04-0.01-0.06-0.02l-16.67-7.77c-0.03-0.02-0.06-0.06-0.06-0.1l0.01-41.42
				c0-0.09,0.07-0.16,0.16-0.16c0.03,0,0.06,0.01,0.08,0.02l49.58,28.63l5.47,3.16c0.06,0.04,0.13,0.06,0.2,0.08l0.75,0.43v-22.66
				c0-0.04,0.02-0.07,0.06-0.09l16.69-9.4c0.05-0.03,0.12-0.01,0.15,0.04c0.01,0.02,0.01,0.03,0.01,0.05v22.13
				C293.93,530.93,293.94,530.96,293.94,530.99z"/>
		</g>
		<g>
			<polygon class="st0" points="279.48,542.24 278.25,543.47 277.01,543.13 271.47,541.62 269.32,539.47 270.58,537.16 
				276.26,540.4 277.01,540.83 			"/>
		</g>
		<g>
			<polygon class="st0" points="281.02,538.54 280.4,543.16 279.48,544.7 277.01,544.4 277.01,536.7 279.48,536.7 			"/>
		</g>
	</g>
</g>
</svg>
